<svg width="204" height="32" viewBox="0 0 204 32" fill="none" xmlns="http://www.w3.org/2000/svg">
<path d="M13.3281 11.3281V12.5781H0.515625V11.3281H13.3281ZM12.1562 1.67188V2.89062H10.0156V7.5625H12.1094V8.75H1.64062V7.5625H3.73438V2.89062H1.60938V1.67188H12.1562ZM5.20312 7.5625H8.5625V2.89062H5.20312V7.5625ZM26.3562 11.4062V12.6562H13.5437V11.4062H19.1844V8.95312H15.1062V4.5H23.325V2.53125H15.075V1.3125H24.7937V5.6875H16.575V7.73438H25.1219V8.95312H20.6531V11.4062H26.3562ZM32.4781 1.90625V5.54688H34.3531V0.59375H35.775V13.6406H34.3531V6.76562H32.4781V10.6406H27.0406V1.90625H32.4781ZM28.4469 3.07812V9.45312H31.0875V3.07812H28.4469ZM38.6187 0.328125V14.3281H37.1969V0.328125H38.6187ZM45.3344 1.98438V3.17188H41.5219V5.75H44.7094V6.90625H41.5219V9.84375C43.35 9.82812 44.5453 9.74219 45.9906 9.48438L46.1156 10.6875C44.5062 11.0156 43.1781 11.0469 41.0062 11.0469H40.1V1.98438H45.3344ZM51.6312 0.328125V14.3281H50.1937V0.328125H51.6312ZM48.7406 0.625V13.625H47.3344V6.78125H45.4437V5.57812H47.3344V0.625H48.7406ZM65.425 8.28125V9.51562H59.7062V14.3281H58.2531V9.51562H52.6125V8.28125H65.425ZM58.9875 0.859375C61.9406 0.859375 63.9719 2.0625 63.9719 3.96875C63.9719 5.85938 61.9406 7.04688 58.9875 7.04688C56.0187 7.04688 54.0031 5.85938 54.0031 3.96875C54.0031 2.0625 56.0187 0.859375 58.9875 0.859375ZM58.9875 2.04688C56.9094 2.0625 55.5187 2.78125 55.5344 3.96875C55.5187 5.14062 56.9094 5.85938 58.9875 5.85938C61.0656 5.85938 62.4562 5.14062 62.4562 3.96875C62.4562 2.78125 61.0656 2.0625 58.9875 2.04688ZM72.7656 2.3125C72.7656 4.59375 75.2031 6.75 77.8906 7.23438L77.2031 8.46875C74.9688 7.98438 72.9062 6.51562 72 4.54688C71.0781 6.5 69.0234 7.96875 66.7812 8.46875L66.125 7.23438C68.7812 6.73438 71.2031 4.59375 71.2031 2.3125V1.25H72.7656V2.3125ZM78.4688 11.25V12.4844H65.6562V11.25H78.4688ZM1 28V26.75L4.92188 22.7969C6.15625 21.5 6.78125 20.7812 6.78125 19.7969C6.78125 18.6875 5.875 17.9688 4.6875 17.9688C3.4375 17.9688 2.625 18.7656 2.625 19.9688H1C0.984375 17.9062 2.5625 16.5312 4.71875 16.5312C6.90625 16.5312 8.40625 17.9062 8.42188 19.75C8.40625 21.0156 7.8125 22.0156 5.6875 24.1094L3.39062 26.4375V26.5312H8.60938V28H1ZM11.4031 22.9688V28H9.73125V19.5156H11.3406V20.9062H11.4344C11.8406 20 12.6687 19.4062 13.9344 19.4062C15.6844 19.4062 16.825 20.5 16.825 22.6094V28H15.1687V22.8125C15.1687 21.5781 14.4969 20.8438 13.3719 20.8438C12.2312 20.8438 11.4031 21.6094 11.4031 22.9688ZM21.2281 28.1719C19.1812 28.1719 17.6812 26.5156 17.6812 23.7812C17.6812 21.0156 19.1969 19.4062 21.2437 19.4062C22.8219 19.4062 23.4 20.3594 23.6969 20.8906H23.775V16.6875H25.4469V28H23.8219V26.6719H23.6969C23.3844 27.2344 22.775 28.1719 21.2281 28.1719ZM21.6031 26.75C23.025 26.75 23.8219 25.5312 23.8219 23.75C23.8219 21.9844 23.0406 20.8281 21.6031 20.8281C20.1187 20.8281 19.3844 22.0781 19.3844 23.75C19.3844 25.4531 20.15 26.75 21.6031 26.75ZM33.7375 28H30.0656V16.6875H33.8469C37.175 16.6875 39.175 18.8125 39.175 22.3281C39.175 25.8594 37.175 28 33.7375 28ZM31.7844 26.5H33.6437C36.2062 26.5 37.4719 25 37.4719 22.3281C37.4719 19.6719 36.2062 18.1875 33.7375 18.1875H31.7844V26.5ZM43.8281 28.1719C41.3281 28.1719 39.7969 26.4531 39.7969 23.8125C39.7969 21.2031 41.3594 19.4062 43.7188 19.4062C45.6562 19.4062 47.4844 20.6094 47.4844 23.6719V24.2656H41.4531C41.5 25.875 42.4453 26.7969 43.8438 26.7969C44.7969 26.7969 45.4062 26.3906 45.6875 25.875H47.375C47 27.25 45.6875 28.1719 43.8281 28.1719ZM41.4688 23.0156H45.8438C45.8438 21.7188 45.0156 20.7812 43.7344 20.7812C42.3984 20.7812 41.5312 21.8125 41.4688 23.0156ZM48.3406 28V19.5156H49.95V20.9062H50.0438C50.4031 19.9531 51.2313 19.4062 52.3563 19.4062C53.4813 19.4062 54.2781 19.9688 54.6375 20.9062H54.7313C55.1375 19.9844 56.0438 19.4062 57.2781 19.4062C58.8094 19.4062 59.9031 20.375 59.9031 22.3125V28H58.2313V22.4688C58.2313 21.3281 57.5125 20.8438 56.6375 20.8438C55.5594 20.8438 54.95 21.5781 54.95 22.5938V28H53.2938V22.375C53.2938 21.4531 52.6531 20.8438 51.7469 20.8438C50.8094 20.8438 50.0125 21.625 50.0125 22.7656V28H48.3406ZM64.7125 28.1719C62.3063 28.1719 60.7438 26.4219 60.7438 23.7969C60.7438 21.1562 62.3063 19.4062 64.7125 19.4062C67.1031 19.4062 68.6656 21.1562 68.6656 23.7969C68.6656 26.4219 67.1031 28.1719 64.7125 28.1719ZM64.7125 26.7812C66.2438 26.7812 66.9781 25.4219 66.9781 23.7969C66.9781 22.1719 66.2438 20.7812 64.7125 20.7812C63.15 20.7812 62.4156 22.1719 62.4156 23.7969C62.4156 25.4219 63.15 26.7812 64.7125 26.7812ZM76.425 28H72.7531V16.6875H76.5344C79.8625 16.6875 81.8625 18.8125 81.8625 22.3281C81.8625 25.8594 79.8625 28 76.425 28ZM74.4719 26.5H76.3313C78.8938 26.5 80.1594 25 80.1594 22.3281C80.1594 19.6719 78.8938 18.1875 76.425 18.1875H74.4719V26.5ZM82.4688 25.6094C82.4688 23.6719 84.1094 23.1719 85.6406 23.0625C86.2031 23.0234 87.4766 22.9531 87.875 22.9375L87.8594 22.2656C87.8594 21.3125 87.2812 20.75 86.1406 20.75C85.1562 20.75 84.5625 21.2031 84.3906 21.8281H82.7344C82.8906 20.4219 84.2031 19.4062 86.2031 19.4062C87.5469 19.4062 89.5312 19.9062 89.5312 22.3594V28H87.9062V26.8438H87.8438C87.5156 27.4844 86.7344 28.1875 85.3281 28.1875C83.7188 28.1875 82.4688 27.2656 82.4688 25.6094ZM84.0938 25.625C84.0938 26.4375 84.7656 26.8594 85.7031 26.8594C87.0625 26.8594 87.875 25.9531 87.875 24.9375V24.1562C87.4844 24.1875 86.2656 24.2734 85.875 24.2969C84.7812 24.375 84.0938 24.7812 84.0938 25.625ZM91.4656 31.1875C91.1219 31.1875 90.7937 31.1719 90.575 31.1406V29.75C90.7625 29.7656 91.0906 29.7812 91.325 29.7812C91.8406 29.7812 92.2781 29.7344 92.6687 28.6719L92.8719 28.1094L89.7625 19.5156H91.5437L93.6844 26.0938H93.7781L95.9187 19.5156H97.7156L94.2156 29.125C93.7312 30.4688 92.8562 31.1875 91.4656 31.1875Z" fill="white"/>
<path d="M142.659 11.625V12.2812H130.128V11.625H142.659ZM141.363 1.98438V2.64062H139.019V7.84375H141.347V8.46875H131.316V7.84375H133.659V2.64062H131.316V1.98438H141.363ZM134.394 7.84375H138.284V2.64062H134.394V7.84375ZM155.688 11.6875V12.3438H143.156V11.6875H149V8.78125H144.797V4.8125H153.281V2.23438H144.766V1.57812H154.016V5.45312H145.531V8.14062H154.344V8.78125H149.75V11.6875H155.688ZM165.091 0.796875V8.70312H164.356V4.73438H161.872V4.10938H164.356V0.796875H165.091ZM160.059 3.39062C160.059 4.92188 161.231 6.6875 162.966 7.42188L162.528 8C161.184 7.39062 160.184 6.21094 159.731 4.90625C159.286 6.38281 158.223 7.71094 156.825 8.375L156.403 7.78125C158.122 7.01562 159.356 5.125 159.356 3.40625V2.34375H156.544V1.6875H162.716V2.34375H160.059V3.39062ZM167.7 0.484375V8.85938H166.997V0.484375H167.7ZM167.7 9.53125V14.1719H166.981V10.1875H158.638V9.53125H167.7ZM180.228 8.07812V8.73438H170.916V1.78125H180.072V2.4375H171.666V4.84375H179.775V5.5H171.666V8.07812H180.228ZM181.744 11.5938V12.2656H169.213V11.5938H181.744ZM188.878 1.6875V13H188.05V2.53125H188.003L185.378 4.25V3.39062L187.988 1.6875H188.878ZM192.719 7.0625C195.781 7.0625 197.422 6.98438 199.391 6.64062L199.484 7.26562C197.438 7.64062 195.813 7.6875 192.719 7.6875H191.656V1.34375H198.172V2H192.406V4.14062H197.797V4.76562H192.406V7.0625H192.719ZM202.031 0.5V8.67188H201.281V0.5H202.031ZM202.031 9.42188V13.9531H193.297V9.42188H202.031ZM194.031 10.0469V13.3125H201.297V10.0469H194.031ZM148.328 26.625V27.2812H135.797V26.625H148.328ZM147.031 16.9844V17.6406H144.688V22.8438H147.016V23.4688H136.984V22.8438H139.328V17.6406H136.984V16.9844H147.031ZM140.062 22.8438H143.953V17.6406H140.062V22.8438ZM154.513 17.1875V20.7656H157.044V15.8281H157.778V28.4219H157.044V21.4219H154.513V25.3125H149.403V17.1875H154.513ZM150.106 17.8125V24.6875H153.809V17.8125H150.106ZM160.466 15.4844V29.1719H159.731V15.4844H160.466ZM171.381 17.4219C171.381 19.5156 174.412 21.0938 176.397 21.4219L176.084 22.0312C174.209 21.6406 171.78 20.4453 171.006 18.625C170.209 20.4453 167.756 21.6406 165.912 22.0312L165.6 21.4219C167.569 21.0938 170.6 19.5156 170.6 17.4219V17.0781H165.991V16.4375H175.991V17.0781H171.381V17.4219ZM177.225 23.4375V24.0781H171.35V29.1406H170.631V24.0781H164.772V23.4375H177.225ZM182.378 17.5C182.378 19.6719 184.128 21.5312 186.019 22.25L185.612 22.8438C184.042 22.2109 182.612 20.8828 182.034 19.1562C181.464 20.9922 180.042 22.4141 178.456 23.1094L178.05 22.5156C179.956 21.7344 181.644 19.7656 181.644 17.5V16.1562H182.378V17.5ZM189.003 24.5156V29.1719H188.253V25.1562H179.925V24.5156H189.003ZM189.003 15.4844V23.7656H188.253V15.4844H189.003ZM201.328 15.5V19.5469H203.562V20.2031H201.328V24.3281H200.594V15.5H201.328ZM197.047 24.4219C199.797 24.4375 201.453 25.2812 201.453 26.7656C201.453 28.25 199.797 29.1094 197.047 29.1094C194.297 29.1094 192.656 28.25 192.656 26.7656C192.656 25.2812 194.297 24.4375 197.047 24.4219ZM197.047 25.0469C194.812 25.0469 193.375 25.7188 193.375 26.7656C193.375 27.8281 194.812 28.4844 197.047 28.4844C199.266 28.4844 200.719 27.8281 200.719 26.7656C200.719 25.7188 199.266 25.0469 197.047 25.0469ZM190.828 22.5C191.961 22.5 193.305 22.4922 194.703 22.4375V20.9375C192.867 20.8438 191.656 19.9141 191.672 18.5C191.656 17.0156 193.016 16.0781 195.031 16.0625C197.031 16.0781 198.391 17.0156 198.406 18.5C198.391 19.8906 197.219 20.8125 195.453 20.9375V22.4062C196.867 22.3438 198.312 22.2266 199.641 22.0156L199.688 22.5938C196.719 23.125 193.375 23.1719 190.938 23.1562L190.828 22.5ZM195.031 16.6719C193.453 16.6719 192.375 17.4375 192.375 18.5C192.375 19.5938 193.453 20.3594 195.031 20.3594C196.594 20.3594 197.688 19.5938 197.688 18.5C197.688 17.4375 196.594 16.6719 195.031 16.6719Z" fill="white"/>
</svg>
