<svg width="16" height="16" viewBox="0 0 16 16" fill="none" xmlns="http://www.w3.org/2000/svg">
<path d="M6 7.33335V13.3334M6 7.33335H3.06641C2.69304 7.33335 2.50654 7.33335 2.36393 7.40602C2.23849 7.46993 2.13658 7.57184 2.07266 7.69729C2 7.83989 2 8.02672 2 8.40009V13.3334H6M6 7.33335V3.73342C6 3.36005 6 3.17323 6.07266 3.03062C6.13658 2.90518 6.23849 2.80326 6.36393 2.73935C6.50654 2.66669 6.69304 2.66669 7.06641 2.66669H8.93307C9.30644 2.66669 9.49352 2.66669 9.63613 2.73935C9.76157 2.80326 9.86317 2.90518 9.92708 3.03062C9.99975 3.17323 10 3.36005 10 3.73342V5.33335M6 13.3334H10M10 13.3334L14 13.3334V6.40009C14 6.02672 13.9997 5.83989 13.9271 5.69729C13.8632 5.57184 13.762 5.46993 13.6365 5.40602C13.4939 5.33335 13.3067 5.33335 12.9333 5.33335H10M10 13.3334V5.33335" stroke="#7C7F84" stroke-linecap="round" stroke-linejoin="round"/>
</svg>
