<svg width="16" height="16" viewBox="0 0 16 16" fill="none" xmlns="http://www.w3.org/2000/svg">
<path d="M2 7.33333V12.9333C2 13.3067 2 13.4931 2.07266 13.6357C2.13658 13.7611 2.23849 13.8635 2.36393 13.9274C2.5064 14 2.69267 14 3.06531 14L10.2676 14C10.6402 14 10.8272 14 10.9697 13.9274C11.0951 13.8635 11.1965 13.7614 11.2604 13.6359C11.3331 13.4933 11.3331 13.3066 11.3331 12.9333L11.3341 10.0004M2 7.33333H6.66667M2 7.33333L2 7.06673C2 6.69343 2 6.50653 2.07266 6.36393C2.13657 6.23849 2.23849 6.13657 2.36393 6.07265C2.50652 6 2.69317 6 3.06641 6L4.66667 6M6.66667 7.33333H10.2667C10.64 7.33333 10.828 7.33333 10.9706 7.406C11.0961 7.46991 11.1965 7.57182 11.2604 7.69727C11.3331 7.83987 11.3331 8.02656 11.3331 8.39993L11.3341 10.0004M6.66667 7.33333L5.94987 6.41178C5.83241 6.26076 5.77344 6.18495 5.69987 6.13053C5.63467 6.08231 5.56202 6.04653 5.48393 6.02467C5.39582 6 5.2992 6 5.10794 6L4.66667 6M4.66667 3.33333H12.9333C13.3067 3.33333 13.4947 3.33333 13.6373 3.406C13.7627 3.46991 13.8632 3.57182 13.9271 3.69727C13.9997 3.83987 13.9997 4.02656 13.9997 4.39993V8.93327C13.9997 9.30664 13.9997 9.49332 13.9271 9.63593C13.8632 9.76137 13.7622 9.86349 13.6367 9.92741C13.4943 10 13.3075 10 12.9349 10L11.3341 10.0004M4.66667 3.33333V6M4.66667 3.33333L4.66667 3.06673C4.66667 2.69343 4.66667 2.50653 4.73932 2.36393C4.80324 2.23849 4.90516 2.13658 5.0306 2.07266C5.17321 2 5.3597 2 5.73307 2H7.77435C7.9658 2 8.06088 2 8.14904 2.02468C8.22713 2.04653 8.30134 2.08231 8.36654 2.13053C8.44011 2.18495 8.49908 2.26076 8.61654 2.41178L9.33329 3.33332" stroke="#747474" stroke-linecap="round" stroke-linejoin="round"/>
</svg>
