<svg width="16" height="16" viewBox="0 0 16 16" fill="none" xmlns="http://www.w3.org/2000/svg">
<path d="M4.58667 12.6C4.31334 12.6 4.08667 12.3733 4.08667 12.1V10.72C4.08667 10.4466 4.31334 10.22 4.58667 10.22C4.86 10.22 5.08667 10.4466 5.08667 10.72V12.1C5.08667 12.38 4.86 12.6 4.58667 12.6Z" fill="#747474"/>
<path d="M8 12.5999C7.72667 12.5999 7.5 12.3733 7.5 12.0999V9.33325C7.5 9.05992 7.72667 8.83325 8 8.83325C8.27333 8.83325 8.5 9.05992 8.5 9.33325V12.0999C8.5 12.3799 8.27333 12.5999 8 12.5999Z" fill="#747474"/>
<path d="M11.4133 12.6C11.14 12.6 10.9133 12.3734 10.9133 12.1V7.95337C10.9133 7.68004 11.14 7.45337 11.4133 7.45337C11.6867 7.45337 11.9133 7.68004 11.9133 7.95337V12.1C11.9133 12.38 11.6933 12.6 11.4133 12.6Z" fill="#747474"/>
<path d="M4.58672 8.7867C4.36005 8.7867 4.16005 8.63336 4.10005 8.40669C4.03338 8.14003 4.19338 7.86669 4.46672 7.80003C6.92005 7.18669 9.08005 5.84669 10.7267 3.93336L11.0334 3.57336C11.2134 3.36669 11.5267 3.34003 11.74 3.52003C11.9467 3.70003 11.9734 4.01336 11.7934 4.22669L11.4867 4.58669C9.70672 6.66669 7.36005 8.11336 4.70672 8.77336C4.66672 8.78669 4.62672 8.7867 4.58672 8.7867Z" fill="#747474"/>
<path d="M11.4133 6.34657C11.14 6.34657 10.9133 6.1199 10.9133 5.84657V4.3999H9.45996C9.18663 4.3999 8.95996 4.17324 8.95996 3.8999C8.95996 3.62657 9.18663 3.3999 9.45996 3.3999H11.4133C11.6866 3.3999 11.9133 3.62657 11.9133 3.8999V5.85324C11.9133 6.12657 11.6933 6.34657 11.4133 6.34657Z" fill="#747474"/>
<path d="M9.99992 15.1666H5.99992C2.37992 15.1666 0.833252 13.6199 0.833252 9.99992V5.99992C0.833252 2.37992 2.37992 0.833252 5.99992 0.833252H9.99992C13.6199 0.833252 15.1666 2.37992 15.1666 5.99992V9.99992C15.1666 13.6199 13.6199 15.1666 9.99992 15.1666ZM5.99992 1.83325C2.92658 1.83325 1.83325 2.92658 1.83325 5.99992V9.99992C1.83325 13.0733 2.92658 14.1666 5.99992 14.1666H9.99992C13.0733 14.1666 14.1666 13.0733 14.1666 9.99992V5.99992C14.1666 2.92658 13.0733 1.83325 9.99992 1.83325H5.99992Z" fill="#747474"/>
</svg>
