<svg width="361" height="23" viewBox="0 0 361 23" fill="none" xmlns="http://www.w3.org/2000/svg">
<path d="M11.8125 8.46875V11.0234H20.0859V13.4375H0.632812V11.0234H8.85938V8.46875H11.8125ZM10.3359 14.6094C14.9766 14.6094 17.7422 15.9453 17.7656 18.3828C17.7422 20.8203 14.9766 22.1562 10.3359 22.1562C5.64844 22.1562 2.85938 20.8203 2.85938 18.3828C2.85938 15.9453 5.64844 14.6094 10.3359 14.6094ZM10.3359 16.8828C7.35938 16.8828 5.88281 17.375 5.90625 18.3828C5.88281 19.4375 7.35938 19.9297 10.3359 19.9297C13.2422 19.9297 14.7422 19.4375 14.7656 18.3828C14.7422 17.375 13.2422 16.8828 10.3359 16.8828ZM18.3281 1.74219V4.08594H12.5391C13.0664 5.55078 15.2461 6.98047 19.2422 7.34375L18.1875 9.6875C14.168 9.28906 11.4727 7.80078 10.3359 5.72656C9.19922 7.78906 6.53906 9.28906 2.53125 9.6875L1.47656 7.34375C5.44922 6.98047 7.64062 5.57422 8.17969 4.08594H2.41406V1.74219H18.3281ZM37.1672 1.67188V9.17188H31.3781V11.2109H39.6281V13.625H20.175V11.2109H28.3781V9.17188H22.5891V1.67188H37.1672ZM25.5187 3.99219V6.82812H34.2375V3.99219H25.5187ZM37.2609 15.1953V22.1562H34.2844V17.5391H22.3312V15.1953H37.2609ZM62.025 0.851562V16.4141H59.0484V8.77344H55.5563V6.35938H59.0484V0.851562H62.025ZM62.5406 19.3906V21.7812H47.8688V15.0547H50.8688V19.3906H62.5406ZM52.1109 5.02344C52.1109 7.48438 53.6109 10.1328 57.0094 11.2344L55.5328 13.6016C53.1656 12.8398 51.5484 11.2812 50.6109 9.33594C49.6734 11.4922 47.9742 13.2031 45.4547 14.0469L43.9313 11.6094C47.4469 10.5078 49.0406 7.71875 49.0641 5V4.67188H44.775V2.28125H56.3531V4.67188H52.1109V5.02344ZM74.4656 2.375V11.8906H64.2234V2.375H74.4656ZM67.1766 4.74219V9.5H71.5125V4.74219H67.1766ZM80.5125 0.828125V5.65625H83.3953V8.07031H80.5125V13.2031H77.5125V0.828125H80.5125ZM73.5281 13.7422C77.9109 13.7422 80.7234 15.3359 80.7234 17.9609C80.7234 20.6094 77.9109 22.1797 73.5281 22.1797C69.0516 22.1797 66.2156 20.6094 66.2156 17.9609C66.2156 15.3359 69.0516 13.7422 73.5281 13.7422ZM73.5281 16.1094C70.7156 16.1094 69.1922 16.7422 69.2156 17.9609C69.1922 19.2266 70.7156 19.8125 73.5281 19.8125C76.2938 19.8125 77.7703 19.2266 77.7703 17.9609C77.7703 16.7422 76.2938 16.1094 73.5281 16.1094ZM98.5266 2.07031C98.5266 7.64844 95.0109 11.5156 88.7531 13.25L87.5813 10.9297C92.175 9.6875 94.8234 7.34375 95.3391 4.46094H88.7297V2.07031H98.5266ZM105.441 0.851562V12.7812H102.464V8.35156H98.6672V5.91406H102.464V0.851562H105.441ZM105.441 13.625V21.8984H91.3078V13.625H105.441ZM94.2375 15.9688V19.5547H102.488V15.9688H94.2375ZM113.827 4.53125C113.827 6.89844 114.998 9.21875 117.834 10.3438L116.217 12.6406C114.424 11.9141 113.17 10.6016 112.42 8.98438C111.623 10.8359 110.287 12.3711 108.295 13.2031L106.702 10.8828C109.702 9.59375 110.92 6.94531 110.92 4.53125V2.07031H113.827V4.53125ZM125.334 0.851562V13.7656H122.498V8.46875H120.717V13.6484H117.928V1.17969H120.717V6.03125H122.498V0.851562H125.334ZM125.334 14.7031V22.1562H122.358V17.0938H110.592V14.7031H125.334ZM136.153 0.640625V22.3906H132.872V0.640625H136.153ZM159.652 1.22656V21.7812H158.527V1.22656H159.652ZM148.894 2.91406C151.894 2.91406 154.003 5.67969 154.027 9.96875C154.003 14.2344 151.894 16.9766 148.894 16.9766C145.87 16.9766 143.761 14.2344 143.761 9.96875C143.761 5.67969 145.87 2.91406 148.894 2.91406ZM148.894 3.89844C146.503 3.89844 144.839 6.42969 144.839 9.96875C144.839 13.4844 146.503 16.0156 148.894 16.0156C151.261 16.0156 152.925 13.4844 152.925 9.96875C152.925 6.42969 151.261 3.89844 148.894 3.89844ZM176.705 8.46875V11.7031H185.494V12.6641H166.814V11.7031H175.627V8.46875H176.705ZM176.166 14.7266C180.548 14.7266 183.173 15.9688 183.173 18.1953C183.173 20.4219 180.548 21.6641 176.166 21.6641C171.759 21.6641 169.134 20.4219 169.134 18.1953C169.134 15.9688 171.759 14.7266 176.166 14.7266ZM176.166 15.6641C172.533 15.6406 170.259 16.625 170.259 18.1953C170.259 19.7656 172.533 20.75 176.166 20.7266C179.752 20.75 182.048 19.7656 182.048 18.1953C182.048 16.625 179.752 15.6406 176.166 15.6641ZM176.798 3.42969C176.798 6.24219 181.205 8.11719 184.322 8.49219L183.877 9.40625C180.912 8.97266 177.279 7.49609 176.189 5C175.052 7.49609 171.42 8.97266 168.455 9.40625L168.009 8.49219C171.127 8.11719 175.509 6.26562 175.509 3.42969V3.19531H168.525V2.23438H183.83V3.19531H176.798V3.42969ZM202.622 2.11719V8.89062H196.27V11.9141H205.036V12.875H186.356V11.9141H195.169V8.89062H188.841V2.11719H202.622ZM189.919 3.05469V7.90625H201.52V3.05469H189.919ZM202.692 15.4062V21.7578H201.567V16.3672H188.442V15.4062H202.692ZM224.578 12.2422V13.2031H205.898V12.2422H224.578ZM222.539 20.2578V21.2188H208.406V15.2891H209.555V20.2578H222.539ZM215.227 1.97656C219.609 1.97656 222.352 3.45312 222.352 5.98438C222.352 8.51562 219.609 9.99219 215.227 9.99219C210.844 9.99219 208.102 8.51562 208.102 5.98438C208.102 3.45312 210.844 1.97656 215.227 1.97656ZM215.227 2.9375C211.641 2.9375 209.227 4.13281 209.227 5.98438C209.227 7.83594 211.641 9.03125 215.227 9.03125C218.812 9.03125 221.227 7.83594 221.227 5.98438C221.227 4.13281 218.812 2.9375 215.227 2.9375ZM235.233 2.91406C238.034 2.91406 240.014 5.41016 240.225 9.33594H245.522V1.22656H246.623V21.7812H245.522V10.2969H240.225C240.12 14.375 238.104 16.9766 235.233 16.9766C232.256 16.9766 230.217 14.2344 230.217 9.96875C230.217 5.67969 232.256 2.91406 235.233 2.91406ZM235.233 3.89844C232.889 3.89844 231.272 6.42969 231.295 9.96875C231.272 13.4844 232.889 16.0156 235.233 16.0156C237.553 16.0156 239.194 13.4844 239.194 9.96875C239.194 6.42969 237.553 3.89844 235.233 3.89844ZM266.822 13.6484V14.5859H252.384V13.6484H259.064V11.4219H260.189V13.6484H266.822ZM259.58 15.7578C263.212 15.7578 265.298 16.8125 265.298 18.7344C265.298 20.6797 263.212 21.6875 259.58 21.7109C255.994 21.6875 253.884 20.6797 253.884 18.7344C253.884 16.8125 255.994 15.7578 259.58 15.7578ZM259.58 16.625C256.767 16.625 255.033 17.4219 255.033 18.7344C255.033 20.0234 256.767 20.8203 259.58 20.7969C262.416 20.8203 264.15 20.0234 264.173 18.7344C264.15 17.4219 262.416 16.625 259.58 16.625ZM255.103 2.375V3.33594H251.189V9.59375C252.127 9.58203 253.697 9.5 255.431 9.07812L255.595 10.0625C253.509 10.5312 251.798 10.5547 250.884 10.5312H250.064V2.375H255.103ZM262.064 2.375V3.33594H257.517V9.59375C259.357 9.59375 261.045 9.51172 263.072 9.05469L263.212 10.0156C261.033 10.4844 259.298 10.5547 257.353 10.5312H256.392V2.375H262.064ZM266.4 1.22656V12.125H265.275V6.64062H260.845V5.70312H265.275V1.22656H266.4ZM286.317 1.22656V21.7578H285.239V1.22656H286.317ZM282.052 1.83594V20.6094H280.95V10.9297H275.934C274.645 13.3438 272.618 15.5117 269.794 17.2109L269.091 16.3672C273.766 13.5898 276.286 9.34766 276.567 4.92969H269.817V3.94531H277.669C277.669 5.99609 277.259 8.04688 276.403 9.96875H280.95V1.83594H282.052ZM298.659 5.5625C298.659 7.88281 300.534 10.2734 303.112 11.2109L302.503 12.1016C300.417 11.2695 298.812 9.62891 298.12 7.69531C297.394 9.75781 295.741 11.668 293.667 12.5938L293.034 11.7266C295.636 10.6016 297.581 7.85938 297.605 5.5625V2.53906H298.659V5.5625ZM310.097 1.25V14H309.042V8.04688H305.644V13.3438H304.566V1.64844H305.644V7.08594H309.042V1.25H310.097ZM303.487 14.5625C307.659 14.5625 310.237 15.8516 310.237 18.125C310.237 20.375 307.659 21.6641 303.487 21.6641C299.245 21.6641 296.714 20.375 296.714 18.125C296.714 15.8516 299.245 14.5625 303.487 14.5625ZM303.487 15.4766C300.019 15.4766 297.792 16.5078 297.816 18.125C297.792 19.7422 300.019 20.75 303.487 20.75C306.886 20.75 309.112 19.7422 309.136 18.125C309.112 16.5078 306.886 15.4766 303.487 15.4766ZM328.256 1.22656V6.71094H331.538V7.69531H328.256V13.3438H327.155V1.22656H328.256ZM322.702 2.65625C322.702 7.64844 318.952 11.3516 312.952 12.9922L312.483 12.0781C317.78 10.6016 321.225 7.58984 321.553 3.61719H313.35V2.65625H322.702ZM328.256 14.3516V21.7578H327.155V15.3125H315.084V14.3516H328.256ZM342.384 5.04688V6.00781H331.861V5.04688H336.548V1.85938H337.673V5.04688H342.384ZM337.111 7.67188C339.642 7.69531 341.47 9.54688 341.494 12.2188C341.47 14.8906 339.642 16.7891 337.111 16.7656C334.58 16.7891 332.728 14.8906 332.752 12.2188C332.728 9.54688 334.58 7.69531 337.111 7.67188ZM337.111 8.65625C335.166 8.67969 333.759 10.25 333.759 12.2188C333.759 14.2109 335.166 15.7812 337.111 15.7578C339.056 15.7812 340.462 14.2109 340.462 12.2188C340.462 10.25 339.056 8.67969 337.111 8.65625ZM349.228 1.22656V21.7578H348.15V11.0469H344.705V20.6562H343.65V1.76562H344.705V10.0625H348.15V1.22656H349.228ZM354.848 14.375C354.872 12.1484 355.598 11.2109 357.263 10.1094C358.645 9.19531 359.278 8.30469 359.278 7.03906C359.278 5.16406 357.802 3.875 355.927 3.875C354.075 3.875 352.552 5.16406 352.481 7.27344H351.263C351.309 4.60156 353.325 2.79688 355.927 2.79688C358.575 2.79688 360.473 4.60156 360.473 7.08594C360.473 8.67969 359.723 9.78125 358.059 10.9062C356.536 11.9375 356.067 12.7344 356.044 14.375V15.0781H354.848V14.375ZM355.481 20.1172C354.942 20.1172 354.497 19.6719 354.497 19.1094C354.497 18.5703 354.942 18.125 355.481 18.125C356.044 18.125 356.489 18.5703 356.489 19.1094C356.489 19.6719 356.044 20.1172 355.481 20.1172Z" fill="black"/>
</svg>
