<svg width="333" height="23" viewBox="0 0 333 23" fill="none" xmlns="http://www.w3.org/2000/svg">
<path d="M11.9531 2.49219C11.9531 5 14.5078 7.78906 19.4062 8.39844L18.2344 10.8125C14.5078 10.2734 11.7773 8.55078 10.3828 6.24219C8.97656 8.55078 6.26953 10.2734 2.57812 10.8125L1.38281 8.39844C6.23438 7.78906 8.8125 5 8.8125 2.49219V1.46094H11.9531V2.49219ZM20.0859 12.4297V14.8672H11.7891V22.1562H8.83594V14.8672H0.632812V12.4297H20.0859ZM38.0344 14.3516V22.1562H35.0344V16.7422H23.3625V14.3516H38.0344ZM38.0344 0.828125V13.3438H35.0344V0.828125H38.0344ZM26.3391 2C29.6672 1.97656 32.175 4.17969 32.175 7.17969C32.175 10.25 29.6672 12.4062 26.3391 12.4062C23.0109 12.4062 20.5031 10.25 20.5031 7.17969C20.5031 4.17969 23.0109 1.97656 26.3391 2ZM26.3391 4.55469C24.6281 4.55469 23.4094 5.51562 23.4328 7.17969C23.4094 8.89062 24.6281 9.875 26.3391 9.875C28.0031 9.875 29.2219 8.89062 29.2219 7.17969C29.2219 5.51562 28.0031 4.55469 26.3391 4.55469ZM59.2172 10.2734V12.4531H54.4125V13.6953H56.8734V18.7344H44.9203V19.9766H57.5062V22.0156H41.9437V16.8359H53.9203V15.7578H41.9203V13.6953H44.5219V12.4531H39.6937V10.2734H59.2172ZM56.85 1.20312V6.19531H45.1078V7.25H57.225V9.28906H42.1312V4.29688H53.85V3.21875H42.0844V1.20312H56.85ZM47.4984 13.6953H51.4125V12.4531H47.4984V13.6953ZM83.1141 17.2578V19.6719H63.5906V17.2578H71.8406V12.5H74.8406V17.2578H83.1141ZM81.4031 2.44531V4.85938H74.9109C75.157 7.67188 77.8055 10.2852 82.3875 10.9531L81.2156 13.3203C77.4773 12.6641 74.7117 10.8359 73.3406 8.30469C71.9813 10.8828 69.2391 12.7578 65.5594 13.4375L64.3875 11.0703C68.8172 10.3555 71.4773 7.68359 71.7234 4.85938H65.2078V2.44531H81.4031ZM101.062 0.828125V22.1562H98.0859V0.828125H101.062ZM83.2266 16.1328C84.8555 16.1211 86.7188 16.1211 88.6641 16.0625V14.2578C86.3203 13.8477 84.7969 12.3945 84.8203 10.3906C84.7969 8 86.9766 6.38281 90.1172 6.38281C93.2812 6.38281 95.4844 8 95.4844 10.3906C95.4844 12.3828 93.9609 13.8359 91.6172 14.2578V15.9688C93.3984 15.8867 95.2031 15.7461 96.9141 15.5234L97.125 17.7266C92.4609 18.5234 87.4219 18.5703 83.625 18.5703L83.2266 16.1328ZM96.6094 3.19531V5.53906H83.6484V3.19531H88.6641V0.921875H91.6406V3.19531H96.6094ZM90.1172 8.65625C88.6641 8.65625 87.6328 9.28906 87.6562 10.3906C87.6328 11.5156 88.6641 12.125 90.1172 12.125C91.6172 12.125 92.625 11.5156 92.625 10.3906C92.625 9.28906 91.6172 8.65625 90.1172 8.65625ZM112.28 0.640625V22.3906H108.998V0.640625H112.28ZM135.052 3.61719V5.39844C135.052 7.83594 135.052 10.8359 134.255 15.4531L133.106 15.2891C133.973 10.9297 133.973 7.76562 133.973 5.39844V4.57812H121.13V3.61719H135.052ZM137.7 17.5391V18.5234H119.02V17.5391H137.7ZM140.625 15.5938C143.18 15.6172 145.57 15.5 148.547 14.9844L148.688 15.9453C145.617 16.4844 143.227 16.5781 140.625 16.5781H139.336V9.3125H145.852V4.60156H139.266V3.61719H146.953V10.3203H140.414V15.5938H140.625ZM155.977 1.22656V21.7578H154.875V10.5547H151.195V20.6328H150.141V1.74219H151.195V9.57031H154.875V1.22656H155.977ZM164.948 7.32031C164.948 10.9062 167.878 14.6328 170.597 15.9453L169.917 16.8828C167.62 15.6641 165.3 12.9453 164.409 9.875C163.554 13.0977 161.245 15.9805 158.995 17.2578L158.269 16.3672C160.941 14.9609 163.823 11.0234 163.847 7.32031V3.125H164.948V7.32031ZM174.909 1.22656V21.7812H173.808V9.52344H168.37V8.58594H173.808V1.22656H174.909ZM198.806 1.22656V11.8203H197.728V7.08594H192.83C192.584 9.58203 190.486 11.2812 187.627 11.2812C184.556 11.2812 182.377 9.38281 182.4 6.64062C182.377 3.89844 184.556 2.02344 187.627 2.02344C190.451 2.02344 192.537 3.65234 192.83 6.10156H197.728V1.22656H198.806ZM187.627 2.98438C185.212 2.98438 183.455 4.57812 183.478 6.64062C183.455 8.72656 185.212 10.3203 187.627 10.3203C189.994 10.3203 191.752 8.72656 191.775 6.64062C191.752 4.57812 189.994 2.98438 187.627 2.98438ZM198.806 13.0859V17.5859H186.9V20.4688H199.72V21.4297H185.822V16.6719H197.728V14.0469H185.752V13.0859H198.806ZM211.739 3.38281V16.3672H202.528V3.38281H211.739ZM203.606 4.29688V15.4297H210.637V4.29688H203.606ZM217.247 1.22656V9.73438H220.927V10.7188H217.247V21.7578H216.145V1.22656H217.247ZM239.859 10.9766V11.9375H221.086V10.9766H239.859ZM237.445 14V18.0312H224.578V20.4922H238.148V21.4062H223.477V17.1406H236.344V14.9141H223.406V14H237.445ZM237.352 2V5.86719H224.672V8.14062H237.727V9.05469H223.594V5.02344H236.25V2.89062H223.5V2H237.352ZM261.811 1.22656V12.0547H260.733V7.0625H255.178V11.0469H246.155V2.23438H247.28V5.5625H254.077V2.23438H255.178V6.07812H260.733V1.22656H261.811ZM261.811 13.1797V17.6094H249.905V20.4688H262.725V21.4297H248.827V16.6953H260.733V14.1406H248.756V13.1797H261.811ZM247.28 10.0859H254.077V6.52344H247.28V10.0859ZM271.205 15.3828C271.181 17.3516 272.377 19.4375 274.509 20.4922C276.619 19.3086 277.861 17.0234 277.861 15.3828V13.8594H278.939V15.3828C278.939 17.4922 280.744 19.7188 283.345 20.6094L282.736 21.5C280.65 20.7031 279.068 19.1445 278.4 17.3516C277.791 19.0508 276.478 20.7969 274.533 21.6641C272.517 20.8438 271.193 19.2148 270.619 17.4219C269.904 19.1328 268.357 20.6914 266.353 21.5L265.767 20.6094C268.298 19.6719 270.127 17.3516 270.15 15.3828V13.8594H271.205V15.3828ZM270.173 2.46875C272.951 2.46875 275.048 4.13281 275.33 6.64062H280.275V1.22656H281.377V13.0859H280.275V7.60156H275.353C275.142 10.1914 273.009 11.9141 270.173 11.9141C267.127 11.9141 264.97 10.0156 264.97 7.20312C264.97 4.39062 267.127 2.46875 270.173 2.46875ZM270.173 3.42969C267.783 3.42969 266.025 5.09375 266.048 7.20312C266.025 9.3125 267.783 10.9766 270.173 10.9766C272.517 10.9766 274.275 9.3125 274.275 7.20312C274.275 5.09375 272.517 3.42969 270.173 3.42969ZM300.638 7.83594V8.79688H286.786V1.97656H287.888V7.83594H300.638ZM302.864 11.9844V12.9453H284.091V11.9844H302.864ZM300.778 20.2344V21.2188H286.692V15.2891H287.794V20.2344H300.778ZM321.07 1.22656V21.7578H319.969V1.22656H321.07ZM316.969 1.78906V20.5859H315.867V10.2734H310.852V9.28906H315.867V1.78906H316.969ZM305.812 15.5703C309.211 15.5703 311.156 15.4531 313.5 14.9375L313.641 15.9219C311.25 16.4375 309.281 16.5312 305.812 16.5312H304.57V3.875H312.234V4.85938H305.648V15.5703H305.812ZM326.597 14.375C326.62 12.1484 327.347 11.2109 329.011 10.1094C330.394 9.19531 331.027 8.30469 331.027 7.03906C331.027 5.16406 329.55 3.875 327.675 3.875C325.823 3.875 324.3 5.16406 324.23 7.27344H323.011C323.058 4.60156 325.073 2.79688 327.675 2.79688C330.323 2.79688 332.222 4.60156 332.222 7.08594C332.222 8.67969 331.472 9.78125 329.808 10.9062C328.284 11.9375 327.816 12.7344 327.792 14.375V15.0781H326.597V14.375ZM327.23 20.1172C326.691 20.1172 326.245 19.6719 326.245 19.1094C326.245 18.5703 326.691 18.125 327.23 18.125C327.792 18.125 328.237 18.5703 328.237 19.1094C328.237 19.6719 327.792 20.1172 327.23 20.1172Z" fill="black"/>
</svg>
