<svg width="313" height="23" viewBox="0 0 313 23" fill="none" xmlns="http://www.w3.org/2000/svg">
<path d="M20.1562 17.2344V19.6719H0.632812V17.2344H8.85938V13.2969H2.69531V2.1875H5.69531V5.49219H15V2.1875H17.9766V13.2969H11.8359V17.2344H20.1562ZM5.69531 10.9062H15V7.88281H5.69531V10.9062ZM37.7531 2.67969V4.69531C37.7531 7.36719 37.7531 10.3672 36.8859 14.8906L33.8859 14.5859C34.6945 10.5547 34.7297 7.55469 34.7531 5.04688H22.1906V2.67969H37.7531ZM39.6281 17.1172V19.5547H20.175V17.1172H27.1359V9.78125H30.1125V17.1172H39.6281ZM47.7797 5.65625C47.7797 9.66406 49.3969 13.5547 52.9594 15.1016L51.1312 17.4922C48.7641 16.332 47.182 14.2109 46.3031 11.5859C45.3656 14.375 43.725 16.6602 41.2875 17.8672L39.4125 15.4297C43.0687 13.7891 44.7328 9.66406 44.7562 5.65625V2.46875H47.7797V5.65625ZM57.7172 0.828125V22.2031H54.7641V9.94531H50.5687V7.53125H54.7641V0.828125H57.7172ZM83.1141 17.2578V19.6719H63.5906V17.2578H71.8406V12.5H74.8406V17.2578H83.1141ZM81.4031 2.44531V4.85938H74.9109C75.157 7.67188 77.8055 10.2852 82.3875 10.9531L81.2156 13.3203C77.4773 12.6641 74.7117 10.8359 73.3406 8.30469C71.9813 10.8828 69.2391 12.7578 65.5594 13.4375L64.3875 11.0703C68.8172 10.3555 71.4773 7.68359 71.7234 4.85938H65.2078V2.44531H81.4031ZM101.062 0.828125V22.1562H98.0859V0.828125H101.062ZM83.2266 16.1328C84.8555 16.1211 86.7188 16.1211 88.6641 16.0625V14.2578C86.3203 13.8477 84.7969 12.3945 84.8203 10.3906C84.7969 8 86.9766 6.38281 90.1172 6.38281C93.2812 6.38281 95.4844 8 95.4844 10.3906C95.4844 12.3828 93.9609 13.8359 91.6172 14.2578V15.9688C93.3984 15.8867 95.2031 15.7461 96.9141 15.5234L97.125 17.7266C92.4609 18.5234 87.4219 18.5703 83.625 18.5703L83.2266 16.1328ZM96.6094 3.19531V5.53906H83.6484V3.19531H88.6641V0.921875H91.6406V3.19531H96.6094ZM90.1172 8.65625C88.6641 8.65625 87.6328 9.28906 87.6562 10.3906C87.6328 11.5156 88.6641 12.125 90.1172 12.125C91.6172 12.125 92.625 11.5156 92.625 10.3906C92.625 9.28906 91.6172 8.65625 90.1172 8.65625ZM112.28 0.640625V22.3906H108.998V0.640625H112.28ZM135.052 3.61719V5.39844C135.052 7.83594 135.052 10.8359 134.255 15.4531L133.106 15.2891C133.973 10.9297 133.973 7.76562 133.973 5.39844V4.57812H121.13V3.61719H135.052ZM137.7 17.5391V18.5234H119.02V17.5391H137.7ZM157.266 11.6562V12.5938H138.562V11.6562H147.352V8.84375H140.977V2.21094H154.852V3.14844H142.078V7.88281H155.039V8.84375H148.43V11.6562H157.266ZM147.914 14.3984C152.273 14.3984 154.922 15.7344 154.922 18.0547C154.922 20.375 152.273 21.6875 147.914 21.7109C143.531 21.6875 140.883 20.375 140.883 18.0547C140.883 15.7344 143.531 14.3984 147.914 14.3984ZM147.914 15.3359C144.328 15.3359 142.008 16.3906 142.008 18.0547C142.008 19.7188 144.328 20.75 147.914 20.75C151.477 20.75 153.797 19.7188 153.797 18.0547C153.797 16.3906 151.477 15.3359 147.914 15.3359ZM173.995 1.20312V7.69531H177.277V8.67969H173.995V16.4609H172.894V1.20312H173.995ZM175.073 20.2578V21.2188H161.456V14.9141H162.534V20.2578H175.073ZM163.894 2.77344C166.894 2.77344 169.12 4.78906 169.12 7.69531C169.12 10.625 166.894 12.6641 163.894 12.6641C160.87 12.6641 158.644 10.625 158.644 7.69531C158.644 4.78906 160.87 2.77344 163.894 2.77344ZM163.894 3.73438C161.527 3.75781 159.722 5.46875 159.745 7.69531C159.722 9.94531 161.527 11.6562 163.894 11.6562C166.261 11.6562 168.042 9.94531 168.066 7.69531C168.042 5.46875 166.261 3.75781 163.894 3.73438ZM198.642 1.25V21.7812H197.494V16.3672H192.431V15.4062H197.494V1.25H198.642ZM181.931 12.3594C186.056 12.3594 191.212 12.2891 195.736 11.8438L195.83 12.7109C193.673 12.9805 191.412 13.1562 189.197 13.25V21.1016H188.095V13.2969C185.974 13.3789 183.923 13.4023 182.119 13.4141L181.931 12.3594ZM193.65 2.49219V9.59375H183.83V2.49219H193.65ZM184.908 3.45312V8.60938H192.548V3.45312H184.908ZM217.247 1.22656V9.66406H220.927V10.6484H217.247V21.7812H216.145V1.22656H217.247ZM203.981 15.6875C208.13 15.6875 210.802 15.5703 214.036 14.9375L214.153 15.8984C210.848 16.5078 208.177 16.6719 203.981 16.6719H202.411V9.21875H210.473V4.22656H202.341V3.24219H211.575V10.2031H203.512V15.6875H203.981ZM237.258 3.52344V5.58594C237.234 8.11719 237.234 10.8594 236.555 14.8438L235.406 14.6797C236.133 10.8594 236.133 8.07031 236.156 5.58594V4.48438H223.148V3.52344H237.258ZM239.789 17.5859V18.5703H221.109V17.5859H228.844V10.0859H229.945V17.5859H239.789ZM262.303 1.25V14H261.248V8.09375H257.85V13.625H256.772V1.57812H257.85V7.13281H261.248V1.25H262.303ZM255.717 3.80469V4.78906H244.913V3.80469H249.788V1.29688H250.889V3.80469H255.717ZM250.327 6.07812C252.928 6.10156 254.686 7.41406 254.686 9.54688C254.686 11.6797 252.928 13.0156 250.327 13.0156C247.725 13.0156 245.967 11.6797 245.967 9.54688C245.967 7.41406 247.725 6.10156 250.327 6.07812ZM250.327 6.99219C248.334 6.99219 246.975 8.02344 246.975 9.54688C246.975 11.0469 248.334 12.1016 250.327 12.1016C252.295 12.1016 253.678 11.0469 253.678 9.54688C253.678 8.02344 252.295 6.99219 250.327 6.99219ZM251.897 15.4766C251.897 17.3984 253.069 19.4609 255.178 20.4922C257.288 19.332 258.506 17.0938 258.53 15.4766V14.5625H259.584V15.4766C259.584 17.5625 261.413 19.7422 263.991 20.6094L263.428 21.5C261.33 20.7148 259.725 19.168 259.045 17.3984C258.471 19.0742 257.17 20.8086 255.225 21.6641C253.186 20.8555 251.862 19.25 251.311 17.4688C250.573 19.168 249.002 20.7031 246.998 21.5L246.436 20.6094C248.967 19.6719 250.819 17.3984 250.819 15.4766V14.5625H251.897V15.4766ZM273.9 1.625C278.353 1.625 281.025 2.89062 281.025 5.21094C281.025 7.53125 278.353 8.82031 273.9 8.82031C269.423 8.82031 266.775 7.53125 266.775 5.21094C266.775 2.89062 269.423 1.625 273.9 1.625ZM273.9 2.53906C270.244 2.51562 267.9 3.57031 267.923 5.21094C267.9 6.89844 270.244 7.90625 273.9 7.90625C277.556 7.90625 279.9 6.89844 279.9 5.21094C279.9 3.57031 277.556 2.51562 273.9 2.53906ZM283.252 10.4844V11.4453H264.572V10.4844H283.252ZM280.767 13.6016V17.7734H268.064V20.5156H281.447V21.4531H266.986V16.8594H279.689V14.5156H266.916V13.6016H280.767ZM300.216 1.22656V9.99219H303.614V10.9297H300.216V21.7578H299.114V1.22656H300.216ZM290.395 3.52344C290.372 7.92969 288.942 13.0391 285.192 16.9062L284.255 16.25C287.571 12.9688 289.141 8.51562 289.364 4.50781H284.723V3.52344H290.395ZM295.997 3.52344C295.997 7.76562 295.13 13.8125 291.169 18.2891L290.208 17.6797C293.735 13.8945 294.813 8.51562 294.966 4.50781H291.028V3.52344H295.997ZM307.055 14.375C307.078 12.1484 307.805 11.2109 309.469 10.1094C310.852 9.19531 311.484 8.30469 311.484 7.03906C311.484 5.16406 310.008 3.875 308.133 3.875C306.281 3.875 304.758 5.16406 304.688 7.27344H303.469C303.516 4.60156 305.531 2.79688 308.133 2.79688C310.781 2.79688 312.68 4.60156 312.68 7.08594C312.68 8.67969 311.93 9.78125 310.266 10.9062C308.742 11.9375 308.273 12.7344 308.25 14.375V15.0781H307.055V14.375ZM307.688 20.1172C307.148 20.1172 306.703 19.6719 306.703 19.1094C306.703 18.5703 307.148 18.125 307.688 18.125C308.25 18.125 308.695 18.5703 308.695 19.1094C308.695 19.6719 308.25 20.1172 307.688 20.1172Z" fill="black"/>
</svg>
